<svg width="156" height="167" viewBox="0 0 156 167" fill="none" xmlns="http://www.w3.org/2000/svg">
<path d="M2.09454 105.084L0 130.581C7.24138 140.792 16.7271 149.318 27.7678 155.542C38.8085 161.766 51.1267 165.53 63.8274 166.561C93.4592 168.995 120.782 156.538 137.983 135.609L140.919 99.8713C132.9 132.976 100.945 156.221 64.92 153.261C35.0828 150.811 10.9351 131.085 2.09454 105.084ZM132.457 47.5104L133.397 36.0588C133.585 33.5314 134.217 31.0562 135.268 28.7407C120.536 12.3162 99.7957 2.11033 77.485 0.306708C57.5242 -1.36191 37.6267 3.81481 21.2562 14.936L21.2571 15.3445L21.2491 15.5245L19.7741 33.48C27.1512 26.3847 36.0329 20.934 45.8073 17.5031C55.5816 14.0724 66.0164 12.7431 76.3924 13.6072C100.473 15.5853 120.843 28.8143 132.457 47.5104Z" fill="#F6A708"/>
<path d="M36.7948 121.497C35.3131 117.927 34.1345 114.189 33.259 110.283C32.3834 106.377 31.7436 102.437 31.3395 98.4634C31.0027 94.4224 30.8345 90.6172 30.8345 87.0477C30.8345 78.1575 31.5415 69.9748 32.9559 62.4989C34.3703 54.9558 36.4245 48.4567 39.1184 43.0013C41.8124 37.5462 45.1462 33.3031 49.1196 30.2724C53.0933 27.1743 57.6057 25.6253 62.6569 25.6253C66.8326 25.6253 70.6378 26.6693 74.0726 28.757C77.5074 30.8448 80.4371 34.0439 82.8617 38.3543C85.2862 42.6646 87.1383 48.1536 88.4179 54.8212C89.765 61.4213 90.4385 69.2675 90.4385 78.3596C90.4385 80.9189 90.371 83.5119 90.2364 86.1386C90.169 88.7651 90.0007 91.4927 89.7312 94.3213M36.7948 121.497C38.2765 124.999 40.1286 128.097 42.3512 130.792M36.7948 121.497L38.642 120.73C38.6411 120.728 38.6402 120.726 38.6393 120.724M36.7948 121.497L38.6367 120.717C38.6376 120.72 38.6385 120.722 38.6393 120.724M42.3512 130.792C44.641 133.485 47.335 135.64 50.4331 137.257M42.3512 130.792L43.8941 129.519C43.8909 129.515 43.8877 129.511 43.8845 129.507M42.3512 130.792L43.8749 129.496C43.8781 129.5 43.8813 129.504 43.8845 129.507M50.4331 137.257C53.531 138.873 57.1343 139.681 61.2426 139.681C64.5428 139.681 68.7521 139.345 73.8705 138.671C79.0564 137.997 84.781 136.583 91.0447 134.428M50.4331 137.257L51.3586 135.484M50.4331 137.257L51.3579 135.484C51.3581 135.484 51.3584 135.484 51.3586 135.484M91.0447 134.428L88.6012 117.415C87.9374 117.516 87.2781 117.616 86.6235 117.713M91.0447 134.428L90.3939 132.537C89.8678 132.718 89.3459 132.893 88.8282 133.063M91.0447 134.428L89.065 134.712L88.8282 133.063M86.6235 117.713L86.3392 115.734C83.0764 116.22 79.9304 116.659 76.9012 117.052C73.2645 117.456 69.6276 117.658 65.9907 117.658C64.0376 117.658 62.3876 117.153 61.0405 116.143C59.6936 115.132 58.515 113.785 57.5047 112.102C56.5619 110.35 55.7872 108.364 55.1812 106.141C54.6424 103.919 54.2383 101.562 53.9688 99.0696L89.7312 94.3213M86.6235 117.713C83.3529 118.2 80.1978 118.641 77.1583 119.035L77.1402 119.037L77.1221 119.039C73.4125 119.452 69.7018 119.658 65.9907 119.658C63.6767 119.658 61.5872 119.052 59.8406 117.743L59.8405 117.743C58.2552 116.554 56.9113 115 55.7897 113.131L55.7657 113.091L55.7436 113.05C54.7187 111.146 53.8916 109.014 53.2516 106.667L53.2442 106.64L53.2375 106.612C52.6764 104.298 52.2583 101.855 51.9804 99.2846L51.7705 97.3439L53.7056 97.087L87.8811 92.5494M86.6235 117.713L88.8282 133.063M89.7312 94.3213L89.468 92.3387L87.8811 92.5494M89.7312 94.3213L87.7402 94.1317C87.7908 93.6004 87.8378 93.073 87.8811 92.5494M87.8811 92.5494C88.0651 90.3268 88.1835 88.1728 88.237 86.0873L88.2377 86.0617L88.239 86.0362C88.372 83.4426 88.4385 80.8838 88.4385 78.3596C88.4385 69.3586 87.7711 61.6531 86.4583 55.2211L86.456 55.2096L86.4538 55.1981C85.2007 48.6691 83.4061 43.4017 81.1186 39.3348C78.8238 35.2554 76.1148 32.3388 73.0338 30.4661C69.9245 28.5762 66.4811 27.6253 62.6569 27.6253C58.05 27.6253 53.9707 29.0262 50.3494 31.8496L50.341 31.8562L50.3326 31.8626C46.6519 34.67 43.4984 38.649 40.9117 43.8869C38.3164 49.1425 36.3108 55.4593 34.9216 62.8675L34.921 62.8707C33.5334 70.2056 32.8345 78.262 32.8345 87.0477C32.8345 90.5496 32.9993 94.293 33.3311 98.2792M88.8282 133.063C83.2764 134.888 78.2067 136.09 73.6127 136.688L73.6094 136.688C68.5354 137.356 64.4213 137.681 61.2426 137.681C57.4004 137.681 54.1248 136.927 51.3586 135.484M51.3586 135.484C48.4958 133.99 46.0074 132.001 43.8845 129.507M43.8845 129.507C41.8008 126.979 40.0498 124.055 38.6393 120.724M38.6393 120.724C37.2046 117.266 36.0612 113.641 35.2105 109.846C34.3537 106.023 33.7272 102.167 33.3311 98.2792M33.3311 98.2792C33.3304 98.2731 33.3298 98.2671 33.3292 98.261L31.3397 98.4634L33.3326 98.2973C33.3321 98.2913 33.3316 98.2852 33.3311 98.2792ZM51.3628 84.3035V81.8955V78.7637C51.3628 75.5033 51.4306 72.2758 51.5666 69.0815C51.5666 69.0815 51.5666 69.0814 51.5666 69.0814L53.5648 69.1665C53.6995 66.0012 54.0362 63.1724 54.575 60.6805L51.3628 84.3035ZM51.3628 84.3035L53.7299 83.8615L70.4997 80.7298L72.1326 80.4248V78.7637V74.9248C72.1326 69.1384 71.6944 64.5132 70.7454 61.1523L51.3628 84.3035ZM102.339 58.8971L153.801 60.3031V74.9526L102.339 75.1401V58.8971Z" fill="#4F4848" stroke="white" stroke-width="4"/>
</svg>
